<mxfile host="Electron" agent="Mozilla/5.0 (Windows NT 10.0; Win64; x64) AppleWebKit/537.36 (KHTML, like Gecko) draw.io/24.7.5 Chrome/126.0.6478.183 Electron/31.3.0 Safari/537.36" version="24.7.5">
  <diagram name="Page-1" id="f1b7ffb7-ca1e-a977-7cf5-a751b3c06c05">
    <mxGraphModel dx="2811" dy="2210" grid="1" gridSize="10" guides="1" tooltips="1" connect="1" arrows="1" fold="1" page="1" pageScale="1" pageWidth="826" pageHeight="1169" background="none" math="0" shadow="0">
      <root>
        <mxCell id="0" />
        <mxCell id="1" parent="0" />
        <mxCell id="hT3dlEepUbV0J1fKSRen-62" value="" style="strokeWidth=1;shadow=0;dashed=0;align=center;html=1;shape=mxgraph.mockup.containers.browserWindow;rSize=0;strokeColor=#666666;strokeColor2=#008cff;strokeColor3=#c4c4c4;mainText=,;recursiveResize=0;movable=0;resizable=0;rotatable=0;deletable=0;editable=0;locked=1;connectable=0;" vertex="1" parent="1">
          <mxGeometry x="-826" width="1636" height="2310" as="geometry" />
        </mxCell>
        <mxCell id="hT3dlEepUbV0J1fKSRen-63" value="Page 1" style="strokeWidth=1;shadow=0;dashed=0;align=center;html=1;shape=mxgraph.mockup.containers.anchor;fontSize=17;fontColor=#666666;align=left;whiteSpace=wrap;" vertex="1" parent="hT3dlEepUbV0J1fKSRen-62">
          <mxGeometry x="60" y="12" width="110" height="26" as="geometry" />
        </mxCell>
        <mxCell id="hT3dlEepUbV0J1fKSRen-64" value="https://www.draw.io" style="strokeWidth=1;shadow=0;dashed=0;align=center;html=1;shape=mxgraph.mockup.containers.anchor;rSize=0;fontSize=17;fontColor=#666666;align=left;" vertex="1" parent="hT3dlEepUbV0J1fKSRen-62">
          <mxGeometry x="130" y="60" width="250" height="26" as="geometry" />
        </mxCell>
        <mxCell id="hT3dlEepUbV0J1fKSRen-72" value="" style="verticalLabelPosition=bottom;shadow=0;dashed=0;align=center;html=1;verticalAlign=top;strokeWidth=1;shape=mxgraph.mockup.graphics.simpleIcon;strokeColor=#999999;movable=0;resizable=0;rotatable=0;deletable=0;editable=0;locked=1;connectable=0;" vertex="1" parent="1">
          <mxGeometry x="-760" y="220" width="610" height="780" as="geometry" />
        </mxCell>
        <mxCell id="hT3dlEepUbV0J1fKSRen-73" value="" style="shape=table;html=1;whiteSpace=wrap;startSize=0;container=1;collapsible=0;childLayout=tableLayout;strokeWidth=2;fontSize=20;" vertex="1" parent="1">
          <mxGeometry x="10" y="230" width="610" height="780" as="geometry" />
        </mxCell>
        <mxCell id="hT3dlEepUbV0J1fKSRen-77" value="" style="shape=tableRow;horizontal=0;startSize=0;swimlaneHead=0;swimlaneBody=0;top=0;left=0;bottom=0;right=0;collapsible=0;dropTarget=0;fillColor=none;points=[[0,0.5],[1,0.5]];portConstraint=eastwest;" vertex="1" parent="hT3dlEepUbV0J1fKSRen-73">
          <mxGeometry width="610" height="67" as="geometry" />
        </mxCell>
        <mxCell id="hT3dlEepUbV0J1fKSRen-78" value="다른 이름" style="shape=partialRectangle;html=1;whiteSpace=wrap;connectable=0;fillColor=none;top=0;left=0;bottom=0;right=0;overflow=hidden;fontSize=20;" vertex="1" parent="hT3dlEepUbV0J1fKSRen-77">
          <mxGeometry width="156" height="67" as="geometry">
            <mxRectangle width="156" height="67" as="alternateBounds" />
          </mxGeometry>
        </mxCell>
        <mxCell id="hT3dlEepUbV0J1fKSRen-79" value="" style="shape=partialRectangle;html=1;whiteSpace=wrap;connectable=0;fillColor=none;top=0;left=0;bottom=0;right=0;overflow=hidden;fontSize=20;" vertex="1" parent="hT3dlEepUbV0J1fKSRen-77">
          <mxGeometry x="156" width="454" height="67" as="geometry">
            <mxRectangle width="454" height="67" as="alternateBounds" />
          </mxGeometry>
        </mxCell>
        <mxCell id="hT3dlEepUbV0J1fKSRen-80" value="" style="shape=tableRow;horizontal=0;startSize=0;swimlaneHead=0;swimlaneBody=0;top=0;left=0;bottom=0;right=0;collapsible=0;dropTarget=0;fillColor=none;points=[[0,0.5],[1,0.5]];portConstraint=eastwest;" vertex="1" parent="hT3dlEepUbV0J1fKSRen-73">
          <mxGeometry y="67" width="610" height="72" as="geometry" />
        </mxCell>
        <mxCell id="hT3dlEepUbV0J1fKSRen-81" value="종류" style="shape=partialRectangle;html=1;whiteSpace=wrap;connectable=0;fillColor=none;top=0;left=0;bottom=0;right=0;overflow=hidden;fontSize=20;" vertex="1" parent="hT3dlEepUbV0J1fKSRen-80">
          <mxGeometry width="156" height="72" as="geometry">
            <mxRectangle width="156" height="72" as="alternateBounds" />
          </mxGeometry>
        </mxCell>
        <mxCell id="hT3dlEepUbV0J1fKSRen-82" value="" style="shape=partialRectangle;html=1;whiteSpace=wrap;connectable=0;fillColor=none;top=0;left=0;bottom=0;right=0;overflow=hidden;fontSize=20;" vertex="1" parent="hT3dlEepUbV0J1fKSRen-80">
          <mxGeometry x="156" width="454" height="72" as="geometry">
            <mxRectangle width="454" height="72" as="alternateBounds" />
          </mxGeometry>
        </mxCell>
        <mxCell id="hT3dlEepUbV0J1fKSRen-83" value="" style="shape=tableRow;horizontal=0;startSize=0;swimlaneHead=0;swimlaneBody=0;top=0;left=0;bottom=0;right=0;collapsible=0;dropTarget=0;fillColor=none;points=[[0,0.5],[1,0.5]];portConstraint=eastwest;" vertex="1" parent="hT3dlEepUbV0J1fKSRen-73">
          <mxGeometry y="139" width="610" height="71" as="geometry" />
        </mxCell>
        <mxCell id="hT3dlEepUbV0J1fKSRen-84" value="작가" style="shape=partialRectangle;html=1;whiteSpace=wrap;connectable=0;fillColor=none;top=0;left=0;bottom=0;right=0;overflow=hidden;fontSize=20;" vertex="1" parent="hT3dlEepUbV0J1fKSRen-83">
          <mxGeometry width="156" height="71" as="geometry">
            <mxRectangle width="156" height="71" as="alternateBounds" />
          </mxGeometry>
        </mxCell>
        <mxCell id="hT3dlEepUbV0J1fKSRen-85" value="" style="shape=partialRectangle;html=1;whiteSpace=wrap;connectable=0;fillColor=none;top=0;left=0;bottom=0;right=0;overflow=hidden;fontSize=20;" vertex="1" parent="hT3dlEepUbV0J1fKSRen-83">
          <mxGeometry x="156" width="454" height="71" as="geometry">
            <mxRectangle width="454" height="71" as="alternateBounds" />
          </mxGeometry>
        </mxCell>
        <mxCell id="hT3dlEepUbV0J1fKSRen-86" value="" style="shape=tableRow;horizontal=0;startSize=0;swimlaneHead=0;swimlaneBody=0;top=0;left=0;bottom=0;right=0;collapsible=0;dropTarget=0;fillColor=none;points=[[0,0.5],[1,0.5]];portConstraint=eastwest;" vertex="1" parent="hT3dlEepUbV0J1fKSRen-73">
          <mxGeometry y="210" width="610" height="71" as="geometry" />
        </mxCell>
        <mxCell id="hT3dlEepUbV0J1fKSRen-87" value="출판사" style="shape=partialRectangle;html=1;whiteSpace=wrap;connectable=0;fillColor=none;top=0;left=0;bottom=0;right=0;overflow=hidden;fontSize=20;" vertex="1" parent="hT3dlEepUbV0J1fKSRen-86">
          <mxGeometry width="156" height="71" as="geometry">
            <mxRectangle width="156" height="71" as="alternateBounds" />
          </mxGeometry>
        </mxCell>
        <mxCell id="hT3dlEepUbV0J1fKSRen-88" value="" style="shape=partialRectangle;html=1;whiteSpace=wrap;connectable=0;fillColor=none;top=0;left=0;bottom=0;right=0;overflow=hidden;fontSize=20;" vertex="1" parent="hT3dlEepUbV0J1fKSRen-86">
          <mxGeometry x="156" width="454" height="71" as="geometry">
            <mxRectangle width="454" height="71" as="alternateBounds" />
          </mxGeometry>
        </mxCell>
        <mxCell id="hT3dlEepUbV0J1fKSRen-89" value="" style="shape=tableRow;horizontal=0;startSize=0;swimlaneHead=0;swimlaneBody=0;top=0;left=0;bottom=0;right=0;collapsible=0;dropTarget=0;fillColor=none;points=[[0,0.5],[1,0.5]];portConstraint=eastwest;" vertex="1" parent="hT3dlEepUbV0J1fKSRen-73">
          <mxGeometry y="281" width="610" height="71" as="geometry" />
        </mxCell>
        <mxCell id="hT3dlEepUbV0J1fKSRen-90" value="장르" style="shape=partialRectangle;html=1;whiteSpace=wrap;connectable=0;fillColor=none;top=0;left=0;bottom=0;right=0;overflow=hidden;fontSize=20;" vertex="1" parent="hT3dlEepUbV0J1fKSRen-89">
          <mxGeometry width="156" height="71" as="geometry">
            <mxRectangle width="156" height="71" as="alternateBounds" />
          </mxGeometry>
        </mxCell>
        <mxCell id="hT3dlEepUbV0J1fKSRen-91" value="" style="shape=partialRectangle;html=1;whiteSpace=wrap;connectable=0;fillColor=none;top=0;left=0;bottom=0;right=0;overflow=hidden;fontSize=20;" vertex="1" parent="hT3dlEepUbV0J1fKSRen-89">
          <mxGeometry x="156" width="454" height="71" as="geometry">
            <mxRectangle width="454" height="71" as="alternateBounds" />
          </mxGeometry>
        </mxCell>
        <mxCell id="hT3dlEepUbV0J1fKSRen-92" value="" style="shape=tableRow;horizontal=0;startSize=0;swimlaneHead=0;swimlaneBody=0;top=0;left=0;bottom=0;right=0;collapsible=0;dropTarget=0;fillColor=none;points=[[0,0.5],[1,0.5]];portConstraint=eastwest;" vertex="1" parent="hT3dlEepUbV0J1fKSRen-73">
          <mxGeometry y="352" width="610" height="72" as="geometry" />
        </mxCell>
        <mxCell id="hT3dlEepUbV0J1fKSRen-93" value="연관된 시리즈" style="shape=partialRectangle;html=1;whiteSpace=wrap;connectable=0;fillColor=none;top=0;left=0;bottom=0;right=0;overflow=hidden;fontSize=20;" vertex="1" parent="hT3dlEepUbV0J1fKSRen-92">
          <mxGeometry width="156" height="72" as="geometry">
            <mxRectangle width="156" height="72" as="alternateBounds" />
          </mxGeometry>
        </mxCell>
        <mxCell id="hT3dlEepUbV0J1fKSRen-94" value="" style="shape=partialRectangle;html=1;whiteSpace=wrap;connectable=0;fillColor=none;top=0;left=0;bottom=0;right=0;overflow=hidden;fontSize=20;" vertex="1" parent="hT3dlEepUbV0J1fKSRen-92">
          <mxGeometry x="156" width="454" height="72" as="geometry">
            <mxRectangle width="454" height="72" as="alternateBounds" />
          </mxGeometry>
        </mxCell>
        <mxCell id="hT3dlEepUbV0J1fKSRen-95" value="" style="shape=tableRow;horizontal=0;startSize=0;swimlaneHead=0;swimlaneBody=0;top=0;left=0;bottom=0;right=0;collapsible=0;dropTarget=0;fillColor=none;points=[[0,0.5],[1,0.5]];portConstraint=eastwest;" vertex="1" parent="hT3dlEepUbV0J1fKSRen-73">
          <mxGeometry y="424" width="610" height="71" as="geometry" />
        </mxCell>
        <mxCell id="hT3dlEepUbV0J1fKSRen-96" value="출판일" style="shape=partialRectangle;html=1;whiteSpace=wrap;connectable=0;fillColor=none;top=0;left=0;bottom=0;right=0;overflow=hidden;fontSize=20;" vertex="1" parent="hT3dlEepUbV0J1fKSRen-95">
          <mxGeometry width="156" height="71" as="geometry">
            <mxRectangle width="156" height="71" as="alternateBounds" />
          </mxGeometry>
        </mxCell>
        <mxCell id="hT3dlEepUbV0J1fKSRen-97" value="" style="shape=partialRectangle;html=1;whiteSpace=wrap;connectable=0;fillColor=none;top=0;left=0;bottom=0;right=0;overflow=hidden;fontSize=20;" vertex="1" parent="hT3dlEepUbV0J1fKSRen-95">
          <mxGeometry x="156" width="454" height="71" as="geometry">
            <mxRectangle width="454" height="71" as="alternateBounds" />
          </mxGeometry>
        </mxCell>
        <mxCell id="hT3dlEepUbV0J1fKSRen-115" value="" style="shape=tableRow;horizontal=0;startSize=0;swimlaneHead=0;swimlaneBody=0;top=0;left=0;bottom=0;right=0;collapsible=0;dropTarget=0;fillColor=none;points=[[0,0.5],[1,0.5]];portConstraint=eastwest;" vertex="1" parent="hT3dlEepUbV0J1fKSRen-73">
          <mxGeometry y="495" width="610" height="71" as="geometry" />
        </mxCell>
        <mxCell id="hT3dlEepUbV0J1fKSRen-116" value="본편 진행도" style="shape=partialRectangle;html=1;whiteSpace=wrap;connectable=0;fillColor=none;top=0;left=0;bottom=0;right=0;overflow=hidden;fontSize=20;" vertex="1" parent="hT3dlEepUbV0J1fKSRen-115">
          <mxGeometry width="156" height="71" as="geometry">
            <mxRectangle width="156" height="71" as="alternateBounds" />
          </mxGeometry>
        </mxCell>
        <mxCell id="hT3dlEepUbV0J1fKSRen-117" value="" style="shape=partialRectangle;html=1;whiteSpace=wrap;connectable=0;fillColor=none;top=0;left=0;bottom=0;right=0;overflow=hidden;fontSize=20;" vertex="1" parent="hT3dlEepUbV0J1fKSRen-115">
          <mxGeometry x="156" width="454" height="71" as="geometry">
            <mxRectangle width="454" height="71" as="alternateBounds" />
          </mxGeometry>
        </mxCell>
        <mxCell id="hT3dlEepUbV0J1fKSRen-118" value="" style="shape=tableRow;horizontal=0;startSize=0;swimlaneHead=0;swimlaneBody=0;top=0;left=0;bottom=0;right=0;collapsible=0;dropTarget=0;fillColor=none;points=[[0,0.5],[1,0.5]];portConstraint=eastwest;" vertex="1" parent="hT3dlEepUbV0J1fKSRen-73">
          <mxGeometry y="566" width="610" height="71" as="geometry" />
        </mxCell>
        <mxCell id="hT3dlEepUbV0J1fKSRen-119" value="본편 상태" style="shape=partialRectangle;html=1;whiteSpace=wrap;connectable=0;fillColor=none;top=0;left=0;bottom=0;right=0;overflow=hidden;fontSize=20;" vertex="1" parent="hT3dlEepUbV0J1fKSRen-118">
          <mxGeometry width="156" height="71" as="geometry">
            <mxRectangle width="156" height="71" as="alternateBounds" />
          </mxGeometry>
        </mxCell>
        <mxCell id="hT3dlEepUbV0J1fKSRen-120" value="" style="shape=partialRectangle;html=1;whiteSpace=wrap;connectable=0;fillColor=none;top=0;left=0;bottom=0;right=0;overflow=hidden;fontSize=20;" vertex="1" parent="hT3dlEepUbV0J1fKSRen-118">
          <mxGeometry x="156" width="454" height="71" as="geometry">
            <mxRectangle width="454" height="71" as="alternateBounds" />
          </mxGeometry>
        </mxCell>
        <mxCell id="hT3dlEepUbV0J1fKSRen-121" value="" style="shape=tableRow;horizontal=0;startSize=0;swimlaneHead=0;swimlaneBody=0;top=0;left=0;bottom=0;right=0;collapsible=0;dropTarget=0;fillColor=none;points=[[0,0.5],[1,0.5]];portConstraint=eastwest;" vertex="1" parent="hT3dlEepUbV0J1fKSRen-73">
          <mxGeometry y="637" width="610" height="72" as="geometry" />
        </mxCell>
        <mxCell id="hT3dlEepUbV0J1fKSRen-122" value="미디어 믹스" style="shape=partialRectangle;html=1;whiteSpace=wrap;connectable=0;fillColor=none;top=0;left=0;bottom=0;right=0;overflow=hidden;fontSize=20;" vertex="1" parent="hT3dlEepUbV0J1fKSRen-121">
          <mxGeometry width="156" height="72" as="geometry">
            <mxRectangle width="156" height="72" as="alternateBounds" />
          </mxGeometry>
        </mxCell>
        <mxCell id="hT3dlEepUbV0J1fKSRen-123" value="" style="shape=partialRectangle;html=1;whiteSpace=wrap;connectable=0;fillColor=none;top=0;left=0;bottom=0;right=0;overflow=hidden;fontSize=20;" vertex="1" parent="hT3dlEepUbV0J1fKSRen-121">
          <mxGeometry x="156" width="454" height="72" as="geometry">
            <mxRectangle width="454" height="72" as="alternateBounds" />
          </mxGeometry>
        </mxCell>
        <mxCell id="hT3dlEepUbV0J1fKSRen-109" value="" style="shape=tableRow;horizontal=0;startSize=0;swimlaneHead=0;swimlaneBody=0;top=0;left=0;bottom=0;right=0;collapsible=0;dropTarget=0;fillColor=none;points=[[0,0.5],[1,0.5]];portConstraint=eastwest;" vertex="1" parent="hT3dlEepUbV0J1fKSRen-73">
          <mxGeometry y="709" width="610" height="71" as="geometry" />
        </mxCell>
        <mxCell id="hT3dlEepUbV0J1fKSRen-110" value="업데이트 날짜" style="shape=partialRectangle;html=1;whiteSpace=wrap;connectable=0;fillColor=none;top=0;left=0;bottom=0;right=0;overflow=hidden;fontSize=20;" vertex="1" parent="hT3dlEepUbV0J1fKSRen-109">
          <mxGeometry width="156" height="71" as="geometry">
            <mxRectangle width="156" height="71" as="alternateBounds" />
          </mxGeometry>
        </mxCell>
        <mxCell id="hT3dlEepUbV0J1fKSRen-111" value="" style="shape=partialRectangle;html=1;whiteSpace=wrap;connectable=0;fillColor=none;top=0;left=0;bottom=0;right=0;overflow=hidden;fontSize=20;" vertex="1" parent="hT3dlEepUbV0J1fKSRen-109">
          <mxGeometry x="156" width="454" height="71" as="geometry">
            <mxRectangle width="454" height="71" as="alternateBounds" />
          </mxGeometry>
        </mxCell>
        <mxCell id="hT3dlEepUbV0J1fKSRen-98" value="&lt;font style=&quot;font-size: 22px;&quot;&gt;Lorem ipsum dolor sit amet, consectetur adipisicing elit, sed do eiusmod tempor incididunt ut labore et dolore magna aliqua. Ut enim ad minim veniam, quis nostrud exercitation ullamco laboris nisi ut aliquip ex ea commodo consequat. Duis aute irure dolor in reprehenderit in voluptate velit esse cillum dolore eu fugiat nulla pariatur. Excepteur sint occaecat cupidatat non proident, sunt in culpa qui officia deserunt mollit anim id est laborum.&lt;br&gt;Sed ut perspiciatis unde omnis iste natus error sit voluptatem accusantium doloremque laudantium, totam rem aperiam, eaque ipsa quae ab illo inventore veritatis et quasi architecto beatae vitae dicta sunt explicabo. Nemo enim ipsam voluptatem quia voluptas sit aspernatur aut odit aut fugit, sed quia consequuntur magni dolores eos qui ratione voluptatem sequi nesciunt. Neque porro quisquam est, qui dolorem ipsum quia dolor sit amet, consectetur, adipisci velit, sed quia non numquam eius modi tempora incidunt ut labore et dolore magnam aliquam quaerat voluptatem. Ut enim ad minima veniam, quis nostrum exercitationem ullam corporis suscipit laboriosam, nisi ut aliquid ex ea commodi consequatur? Quis autem vel eum iure reprehenderit qui in ea voluptate velit esse quam nihil molestiae consequatur, vel illum qui dolorem eum fugiat quo voluptas nulla pariatur?&lt;/font&gt;" style="text;spacingTop=-5;whiteSpace=wrap;html=1;align=left;fontSize=12;fontFamily=Helvetica;fillColor=none;strokeColor=none;" vertex="1" parent="1">
          <mxGeometry x="-700" y="1200" width="1340" height="290" as="geometry" />
        </mxCell>
        <mxCell id="hT3dlEepUbV0J1fKSRen-101" value="&lt;font style=&quot;font-size: 50px;&quot;&gt;&amp;lt;&amp;lt; 제목 &amp;gt;&amp;gt;&amp;nbsp;&lt;/font&gt;" style="text;html=1;align=center;verticalAlign=middle;whiteSpace=wrap;rounded=0;" vertex="1" parent="1">
          <mxGeometry x="-280" y="150" width="330" height="30" as="geometry" />
        </mxCell>
        <mxCell id="hT3dlEepUbV0J1fKSRen-102" value="&lt;font style=&quot;font-size: 30px;&quot;&gt;URL IMAGE&lt;/font&gt;" style="text;strokeColor=none;fillColor=none;align=left;verticalAlign=middle;spacingLeft=4;spacingRight=4;overflow=hidden;points=[[0,0.5],[1,0.5]];portConstraint=eastwest;rotatable=0;whiteSpace=wrap;html=1;movable=0;resizable=0;deletable=0;editable=0;locked=1;connectable=0;" vertex="1" parent="1">
          <mxGeometry x="-515" y="520" width="120" height="152.5" as="geometry" />
        </mxCell>
        <mxCell id="hT3dlEepUbV0J1fKSRen-112" value="" style="shape=tableRow;horizontal=0;startSize=0;swimlaneHead=0;swimlaneBody=0;top=0;left=0;bottom=0;right=0;collapsible=0;dropTarget=0;fillColor=none;points=[[0,0.5],[1,0.5]];portConstraint=eastwest;" vertex="1" parent="1">
          <mxGeometry x="10" y="130" width="610" height="95" as="geometry" />
        </mxCell>
        <mxCell id="hT3dlEepUbV0J1fKSRen-114" value="" style="shape=partialRectangle;html=1;whiteSpace=wrap;connectable=0;fillColor=none;top=0;left=0;bottom=0;right=0;overflow=hidden;fontSize=20;" vertex="1" parent="hT3dlEepUbV0J1fKSRen-112">
          <mxGeometry x="156" width="454" height="95" as="geometry">
            <mxRectangle width="454" height="95" as="alternateBounds" />
          </mxGeometry>
        </mxCell>
        <mxCell id="hT3dlEepUbV0J1fKSRen-130" value="" style="rounded=0;whiteSpace=wrap;html=1;" vertex="1" parent="1">
          <mxGeometry x="-800" y="1694" width="1570" height="586" as="geometry" />
        </mxCell>
        <mxCell id="hT3dlEepUbV0J1fKSRen-133" value="&lt;span style=&quot;font-size: 40px;&quot;&gt;user comments section&amp;nbsp;&lt;/span&gt;" style="text;html=1;align=center;verticalAlign=middle;whiteSpace=wrap;rounded=0;" vertex="1" parent="1">
          <mxGeometry x="-800" y="1660" width="500" height="30" as="geometry" />
        </mxCell>
        <mxCell id="hT3dlEepUbV0J1fKSRen-144" value="" style="group" vertex="1" connectable="0" parent="1">
          <mxGeometry x="-750" y="1039" width="340" height="130" as="geometry" />
        </mxCell>
        <mxCell id="hT3dlEepUbV0J1fKSRen-137" value="&lt;font style=&quot;font-size: 20px;&quot;&gt;Ranking&lt;/font&gt;" style="strokeWidth=1;shadow=0;dashed=0;align=center;html=1;shape=mxgraph.mockup.text.textBox;fontColor=#666666;align=left;fontSize=17;spacingLeft=4;spacingTop=-3;whiteSpace=wrap;strokeColor=#666666;mainText=;movable=1;resizable=1;rotatable=1;deletable=1;editable=1;locked=0;connectable=1;" vertex="1" parent="hT3dlEepUbV0J1fKSRen-144">
          <mxGeometry width="150" height="30" as="geometry" />
        </mxCell>
        <mxCell id="hT3dlEepUbV0J1fKSRen-138" value="&lt;font style=&quot;font-size: 20px;&quot;&gt;Liked&lt;/font&gt;" style="strokeWidth=1;shadow=0;dashed=0;align=center;html=1;shape=mxgraph.mockup.text.textBox;fontColor=#666666;align=left;fontSize=17;spacingLeft=4;spacingTop=-3;whiteSpace=wrap;strokeColor=#666666;mainText=;movable=1;resizable=1;rotatable=1;deletable=1;editable=1;locked=0;connectable=1;" vertex="1" parent="hT3dlEepUbV0J1fKSRen-144">
          <mxGeometry y="50" width="150" height="30" as="geometry" />
        </mxCell>
        <mxCell id="hT3dlEepUbV0J1fKSRen-139" value="&lt;font style=&quot;font-size: 20px;&quot;&gt;12&lt;/font&gt;" style="strokeWidth=1;shadow=0;dashed=0;align=center;html=1;shape=mxgraph.mockup.text.textBox;fontColor=#666666;align=left;fontSize=17;spacingLeft=4;spacingTop=-3;whiteSpace=wrap;strokeColor=#666666;mainText=;movable=1;resizable=1;rotatable=1;deletable=1;editable=1;locked=0;connectable=1;" vertex="1" parent="hT3dlEepUbV0J1fKSRen-144">
          <mxGeometry x="190" width="150" height="30" as="geometry" />
        </mxCell>
        <mxCell id="hT3dlEepUbV0J1fKSRen-140" value="&lt;font style=&quot;font-size: 20px;&quot;&gt;100&lt;/font&gt;" style="strokeWidth=1;shadow=0;dashed=0;align=center;html=1;shape=mxgraph.mockup.text.textBox;fontColor=#666666;align=left;fontSize=17;spacingLeft=4;spacingTop=-3;whiteSpace=wrap;strokeColor=#666666;mainText=;movable=1;resizable=1;rotatable=1;deletable=1;editable=1;locked=0;connectable=1;" vertex="1" parent="hT3dlEepUbV0J1fKSRen-144">
          <mxGeometry x="190" y="50" width="150" height="30" as="geometry" />
        </mxCell>
        <mxCell id="hT3dlEepUbV0J1fKSRen-141" value="&lt;font style=&quot;font-size: 20px;&quot;&gt;scores&lt;/font&gt;" style="strokeWidth=1;shadow=0;dashed=0;align=center;html=1;shape=mxgraph.mockup.text.textBox;fontColor=#666666;align=left;fontSize=17;spacingLeft=4;spacingTop=-3;whiteSpace=wrap;strokeColor=#666666;mainText=;movable=1;resizable=1;rotatable=1;deletable=1;editable=1;locked=0;connectable=1;" vertex="1" parent="hT3dlEepUbV0J1fKSRen-144">
          <mxGeometry y="100" width="150" height="30" as="geometry" />
        </mxCell>
        <mxCell id="hT3dlEepUbV0J1fKSRen-143" value="&lt;font style=&quot;font-size: 20px;&quot;&gt;100&lt;/font&gt;" style="strokeWidth=1;shadow=0;dashed=0;align=center;html=1;shape=mxgraph.mockup.text.textBox;fontColor=#666666;align=left;fontSize=17;spacingLeft=4;spacingTop=-3;whiteSpace=wrap;strokeColor=#666666;mainText=;movable=1;resizable=1;rotatable=1;deletable=1;editable=1;locked=0;connectable=1;" vertex="1" parent="hT3dlEepUbV0J1fKSRen-144">
          <mxGeometry x="190" y="100" width="150" height="30" as="geometry" />
        </mxCell>
      </root>
    </mxGraphModel>
  </diagram>
</mxfile>
